<svg width="286" height="44" viewBox="0 0 286 44" fill="none" xmlns="http://www.w3.org/2000/svg">
  <path d="M284.138 12.3966L275.373 3.63129C274.529 2.79609 273.134 2.86498 272.42 3.81211C263.852 15.0313 249.654 22.3673 233.587 22.3673C217.512 22.3673 203.313 15.0227 194.746 3.81211C194.023 2.86498 192.628 2.79609 191.793 3.63129L183.028 12.3966C181.831 13.5934 181.719 15.5049 182.795 16.8051C194.858 31.4426 213.112 40.7675 233.553 40.7848H233.587H233.622C254.063 40.7762 272.325 31.4426 284.379 16.8051C285.456 15.5049 285.335 13.5848 284.147 12.3966" fill="#ED1944"/>
  <path d="M153.304 9.40993H144.454C144.094 9.39993 143.754 9.53992 143.504 9.78992L141.164 12.1299C140.914 12.3799 140.774 12.7299 140.774 13.0799V14.4499C140.774 15.1099 141.314 15.6499 141.974 15.6499H154.554C155.584 15.6499 156.424 16.4799 156.424 17.5099V26.2599C156.424 27.2899 155.584 28.1299 154.554 28.1299H149.754C149.744 28.1299 149.734 28.1299 149.724 28.1299H142.024C141.344 28.1299 140.784 28.6799 140.784 29.3699V33.1299C140.784 33.8099 141.334 34.3699 142.024 34.3699H153.324C158.494 34.3699 162.674 30.1799 162.674 25.0199V18.7599C162.674 13.5899 158.484 9.40993 153.324 9.40993" fill="#ED1944"/>
  <path d="M6.27392 24.27C6.45392 24.77 6.93391 25.1 7.46391 25.1H11.3439C12.2139 25.1 12.8139 24.24 12.5139 23.43L6.26391 7.08C6.08391 6.58 5.61391 6.25 5.08391 6.25H1.23391C0.383915 6.25 -0.216085 7.1 0.0739147 7.9L6.26391 24.26L6.27392 24.27Z" fill="#ED1944"/>
  <path d="M114.524 37.5701H110.614C109.964 37.5701 109.434 38.1001 109.434 38.7501V42.6601C109.434 43.3101 109.964 43.8401 110.614 43.8401H114.524C115.174 43.8401 115.704 43.3101 115.704 42.6601V38.7501C115.704 38.1001 115.174 37.5701 114.524 37.5701Z" fill="#ED1944"/>
  <path d="M136.384 37.5701H126.314C125.634 37.5701 125.084 38.1201 125.084 38.8001V42.6101C125.084 43.2901 125.634 43.8401 126.314 43.8401H136.384C137.064 43.8401 137.614 43.2901 137.614 42.6101V38.8001C137.614 38.1201 137.064 37.5701 136.384 37.5701Z" fill="#ED1944"/>
  <path d="M56.334 9.39H53.7539L62.3239 1.24C62.7639 0.769998 62.434 0 61.784 0H55.444C54.954 0 54.484 0.190001 54.124 0.540001L40.9339 13.54C40.1539 14.32 40.704 15.65 41.804 15.65H56.384C58.064 15.65 59.4339 17.1 59.4339 18.78V28.17L36.204 28.15C35.184 28.15 34.354 27.32 34.354 26.3V7.48C34.354 6.8 33.804 6.25 33.124 6.25H29.4039C28.7239 6.25 28.174 6.8 28.174 7.48L28.194 25.54C28.434 30.44 32.4739 34.33 37.4339 34.33L64.384 34.35C65.064 34.35 65.6139 33.8 65.6139 33.12L65.5739 18.49C65.4039 13.53 61.344 9.39 56.334 9.39Z" fill="#ED1944"/>
  <path d="M23.8339 6.25999H20.1139C19.4339 6.25999 18.8839 6.80999 18.8839 7.48999V26.41C18.8839 27.43 18.0539 28.26 17.0339 28.26L3.75393 28.24C3.39393 28.24 3.05392 28.38 2.80392 28.63L0.423923 30.9C0.173923 31.15 0.0239258 31.5 0.0239258 31.85V33.22C0.0239258 33.88 0.563923 34.42 1.22392 34.42H15.8039C20.7639 34.42 24.7939 30.52 25.0439 25.63L25.0639 7.46999C25.0639 6.78999 24.5139 6.23999 23.8339 6.23999" fill="#ED1944"/>
  <path d="M137.584 25.4899L137.604 16.8899C137.604 16.1999 137.044 15.6499 136.364 15.6499H132.594C131.904 15.6499 131.354 16.2099 131.354 16.8899V26.2699C131.354 27.2999 130.514 28.1399 129.484 28.1399H115.704V18.7599C115.704 12.7199 111.374 9.3999 106.304 9.3999H97.4639C97.1039 9.3999 96.7639 9.5399 96.5139 9.7899L94.1739 12.1299C93.9239 12.3799 93.7839 12.7299 93.7839 13.0799V14.4499C93.7839 15.1099 94.3239 15.6499 94.9839 15.6499H107.564C108.594 15.6399 109.434 16.4799 109.434 17.5099L109.464 28.1299L88.7739 28.1799C88.0939 28.1799 87.5339 28.7399 87.5339 29.4199V33.1999C87.5339 33.8899 88.0939 34.4399 88.7739 34.4399H93.7939V35.7099C93.7939 36.7399 92.9539 37.5799 91.9239 37.5799H76.7039C75.7739 37.5799 75.0139 36.8199 75.0139 35.8799V23.1599C75.0139 22.4799 74.4539 21.9199 73.7639 21.9199H69.9939C69.3039 21.9199 68.7539 22.4699 68.7539 23.1599L68.7739 34.4699C68.7539 40.7099 71.8839 43.8399 78.1439 43.8399H90.8039C96.3539 43.8399 100.054 40.2899 100.054 34.4499H114.474C115.154 34.4499 115.714 33.8899 115.714 33.2099V31.2699L115.734 31.2899L118.474 34.0899C118.704 34.3299 119.014 34.4599 119.344 34.4599H128.244C133.254 34.4599 137.344 30.4599 137.594 25.5099" fill="#ED1944"/>
</svg>
